<svg width="25" height="25" viewBox="0 0 25 25" fill="none" xmlns="http://www.w3.org/2000/svg">
<path d="M9.21533 12.2869C9.21533 11.8098 9.21533 11.5712 9.29315 11.3828C9.39729 11.1325 9.5965 10.9336 9.84708 10.8299C10.0355 10.7511 10.274 10.7511 10.7512 10.7511H13.8229C14.3 10.7511 14.5386 10.7511 14.727 10.8289C14.9774 10.9331 15.1762 11.1323 15.2799 11.3828C15.3587 11.5712 15.3587 11.8098 15.3587 12.2869C15.3587 12.7641 15.3587 13.0027 15.2809 13.1911C15.1768 13.4414 14.9776 13.6403 14.727 13.744C14.5386 13.8228 14.3 13.8228 13.8229 13.8228H10.7512C10.274 13.8228 10.0355 13.8228 9.84708 13.745C9.59669 13.6408 9.39785 13.4416 9.29417 13.1911C9.21533 13.0027 9.21533 12.7641 9.21533 12.2869Z" stroke="black" stroke-width="1.22868"/>
<path d="M20.99 7.1675V13.3109C20.99 17.172 20.99 19.1031 19.79 20.3021C18.59 21.5011 16.6599 21.5021 12.7988 21.5021H11.7749M3.5837 7.1675V13.3109C3.5837 17.172 3.5837 19.1031 4.78371 20.3021C5.50454 21.0239 6.49158 21.3116 8.00285 21.4263M12.2868 3.0719H4.09565C3.13011 3.0719 2.64786 3.0719 2.34785 3.3719C2.04785 3.6719 2.04785 4.15416 2.04785 5.1197C2.04785 6.08524 2.04785 6.56749 2.34785 6.86749C2.64786 7.1675 3.13011 7.1675 4.09565 7.1675H20.478C21.4436 7.1675 21.9258 7.1675 22.2258 6.86749C22.5258 6.56749 22.5258 6.08524 22.5258 5.1197C22.5258 4.15416 22.5258 3.6719 22.2258 3.3719C21.9258 3.0719 21.4436 3.0719 20.478 3.0719H16.3824" stroke="black" stroke-width="1.22868" stroke-linecap="round"/>
</svg>
