<svg xmlns="http://www.w3.org/2000/svg" viewBox="0 0 24 24" fill="none" stroke="currentColor" strokeWidth="1.5">
  <path d="M15 18l-6-6 6-6" stroke-linecap="round" stroke-linejoin="round" />
</svg>
<svg width="43" height="43" viewBox="0 0 43 43" fill="none" xmlns="http://www.w3.org/2000/svg">
<g clip-path="url(#clip0_15_485)">
<path fill-rule="evenodd" clip-rule="evenodd" d="M4.6833 9.72158C4.88673 9.23044 5.23124 8.81067 5.67326 8.51535C6.11528 8.22003 6.63496 8.06244 7.16655 8.0625H25.0832C28.6471 8.0625 32.0649 9.47823 34.585 11.9982C37.105 14.5183 38.5207 17.9361 38.5207 21.5C38.5207 25.0638 37.105 28.4817 34.585 31.0017C32.0649 33.5218 28.6471 34.9375 25.0832 34.9375H8.95822C8.24545 34.9375 7.56187 34.6543 7.05787 34.1503C6.55387 33.6463 6.27072 32.9628 6.27072 32.25C6.27072 31.5372 6.55387 30.8537 7.05787 30.3496C7.56187 29.8456 8.24545 29.5625 8.95822 29.5625H25.0832C27.2215 29.5625 29.2723 28.7131 30.7843 27.201C32.2963 25.689 33.1457 23.6383 33.1457 21.5C33.1457 19.3617 32.2963 17.311 30.7843 15.7989C29.2723 14.2869 27.2215 13.4375 25.0832 13.4375H13.6542L15.3383 15.1217C15.8277 15.6288 16.0982 16.3078 16.0918 17.0124C16.0853 17.7171 15.8024 18.391 15.3038 18.889C14.8053 19.3871 14.1311 19.6694 13.4265 19.6752C12.7218 19.681 12.0431 19.4098 11.5364 18.92L5.26559 12.6492C4.89003 12.2734 4.63428 11.7947 4.53064 11.2736C4.427 10.7526 4.48012 10.2125 4.6833 9.72158Z" fill="black"/>
</g>
<defs>
<clipPath id="clip0_15_485">
<rect width="43" height="43" fill="white"/>
</clipPath>
</defs>
</svg>
