<svg width="25" height="25" viewBox="0 0 25 25" fill="none" xmlns="http://www.w3.org/2000/svg">
<path d="M15.3586 4.09565V2.04785M15.3586 4.09565V6.14345M15.3586 4.09565H10.751M3.07178 10.239V19.4541C3.07178 19.9973 3.28753 20.5181 3.67156 20.9022C4.0556 21.2862 4.57647 21.5019 5.11958 21.5019H19.4542C19.9973 21.5019 20.5181 21.2862 20.9022 20.9022C21.2862 20.5181 21.502 19.9973 21.502 19.4541V10.239M3.07178 10.239H21.502M3.07178 10.239V6.14345C3.07178 5.60034 3.28753 5.07947 3.67156 4.69544C4.0556 4.3114 4.57647 4.09565 5.11958 4.09565H7.16738M21.502 10.239V6.14345C21.502 5.60034 21.2862 5.07947 20.9022 4.69544C20.5181 4.3114 19.9973 4.09565 19.4542 4.09565H18.9422M7.16738 2.04785V6.14345" stroke="black" stroke-width="1.22868" stroke-linecap="round" stroke-linejoin="round"/>
</svg>
