<svg width="25" height="25" viewBox="0 0 25 25" fill="none" xmlns="http://www.w3.org/2000/svg">
<path d="M20.4781 15.3584C20.4781 17.267 20.4781 18.2213 20.1668 18.9728C19.961 19.4698 19.6593 19.9213 19.2789 20.3017C18.8986 20.682 18.447 20.9837 17.9501 21.1896C17.1975 21.5018 16.2432 21.5018 14.3347 21.5018H11.263C7.40082 21.5018 5.46975 21.5018 4.26974 20.3018C3.07178 19.1028 3.07178 17.1718 3.07178 13.3107V7.16725C3.07178 6.08103 3.50328 5.0393 4.27135 4.27123C5.03942 3.50315 6.08115 3.07166 7.16738 3.07166" stroke="black" stroke-width="1.22868" stroke-linecap="round" stroke-linejoin="round"/>
<path d="M10.2387 8.70313L10.6831 12.767C10.7019 12.9336 10.764 13.0924 10.8632 13.2276C10.9623 13.3628 11.095 13.4698 11.2483 13.538C11.9507 13.84 13.2664 14.3346 14.3343 14.3346C15.4022 14.3346 16.7179 13.84 17.4203 13.538C17.5737 13.47 17.7067 13.3631 17.806 13.2278C17.9053 13.0926 17.9676 12.9337 17.9865 12.767L18.4299 8.70313M20.9896 7.67923V11.5393M14.3343 4.09558L7.16699 7.16728L14.3343 10.239L21.5016 7.16728L14.3343 4.09558Z" stroke="black" stroke-width="1.22868" stroke-linecap="round" stroke-linejoin="round"/>
</svg>
