<svg width="25" height="25" viewBox="0 0 25 25" fill="none" xmlns="http://www.w3.org/2000/svg">
<path d="M22.5254 22.5257H2.04736M2.04736 11.2629L6.20747 7.93518M22.5254 11.2629L14.2051 4.6075C13.6605 4.17183 12.9838 3.93447 12.2864 3.93447C11.5889 3.93447 10.9122 4.17183 10.3676 4.6075L9.56688 5.24744M15.87 5.6314V3.5836C15.87 3.44783 15.9239 3.31761 16.02 3.2216C16.116 3.12559 16.2462 3.07166 16.382 3.07166H18.9417C19.0775 3.07166 19.2077 3.12559 19.3037 3.2216C19.3997 3.31761 19.4537 3.44783 19.4537 3.5836V8.7031M4.09516 22.5257V9.727M20.4776 9.727V13.8226M20.4776 22.5257V17.9182" stroke="black" stroke-width="1.22868" stroke-linecap="round"/>
<path d="M15.3582 22.5258V17.4063C15.3582 15.9585 15.3582 15.2346 14.9077 14.7851C14.4593 14.3346 13.7354 14.3346 12.2865 14.3346C10.8377 14.3346 10.1149 14.3346 9.66536 14.7851M9.21484 22.5258V17.4063" stroke="black" stroke-width="1.22868" stroke-linecap="round" stroke-linejoin="round"/>
<path d="M14.3344 9.727C14.3344 10.2701 14.1186 10.791 13.7346 11.175C13.3505 11.559 12.8297 11.7748 12.2866 11.7748C11.7435 11.7748 11.2226 11.559 10.8386 11.175C10.4545 10.791 10.2388 10.2701 10.2388 9.727C10.2388 9.18389 10.4545 8.66302 10.8386 8.27899C11.2226 7.89495 11.7435 7.6792 12.2866 7.6792C12.8297 7.6792 13.3505 7.89495 13.7346 8.27899C14.1186 8.66302 14.3344 9.18389 14.3344 9.727Z" stroke="black" stroke-width="1.22868"/>
</svg>
