<?xml version="1.0" encoding="UTF-8"?>
<svg version="1.1" xmlns="http://www.w3.org/2000/svg" width="54" height="40">
<path d="M0 0 C1.07314453 0.01289062 2.14628906 0.02578125 3.25195312 0.0390625 C4.37150391 0.07257812 5.49105469 0.10609375 6.64453125 0.140625 C7.77568359 0.15867187 8.90683594 0.17671875 10.07226562 0.1953125 C12.86803501 0.24249848 15.66211097 0.30831905 18.45703125 0.390625 C22.26492812 7.36270285 24.84858602 14.70640246 27.45849609 22.18383789 C28.21435197 24.34909627 28.97762399 26.51163081 29.7421875 28.67382812 C33.45703125 39.22218117 33.45703125 39.22218117 33.45703125 40.390625 C28.50703125 40.390625 23.55703125 40.390625 18.45703125 40.390625 C19.11703125 38.410625 19.77703125 36.430625 20.45703125 34.390625 C21.28456146 28.79036244 20.55923398 24.07339658 17.8046875 19.1171875 C15.49299091 16.15553563 12.84482878 14.95904978 9.45703125 13.390625 C7.45703125 12.390625 7.45703125 12.390625 6.45703125 9.390625 C6.08578125 9.98875 5.71453125 10.586875 5.33203125 11.203125 C3.45703125 13.390625 3.45703125 13.390625 0.51953125 14.828125 C-3.56103802 16.9100481 -5.64349975 19.04922373 -7.30078125 23.36328125 C-9.01528977 29.51597955 -8.0982314 34.25597786 -6.54296875 40.390625 C-11.16296875 40.390625 -15.78296875 40.390625 -20.54296875 40.390625 C-19.74719028 35.61595421 -18.7768948 31.8701552 -17.14453125 27.3828125 C-16.90890472 26.73490753 -16.6732782 26.08700256 -16.43051147 25.41946411 C-15.9338602 24.0587844 -15.43451885 22.69908384 -14.93261719 21.34033203 C-14.16877119 19.26780224 -13.41792353 17.19087194 -12.66796875 15.11328125 C-12.1817675 13.78617307 -11.69481379 12.45934028 -11.20703125 11.1328125 C-10.7682666 9.9351123 -10.32950195 8.73741211 -9.87744141 7.50341797 C-7.47485366 1.8991381 -6.32542256 -0.13387138 0 0 Z " fill="#688568" transform="translate(20.54296875,-0.390625)"/>
<path d="M0 0 C3.4471633 2.85622102 5.76541895 5.54625684 7.1875 9.8125 C7.56152531 15.51638605 7.20464173 18.78393045 4.1875 23.8125 C3.40375 23.4825 2.62 23.1525 1.8125 22.8125 C-4.39014198 21.10142635 -10.06217383 20.80610541 -15.8125 23.8125 C-16.8025 23.8125 -17.7925 23.8125 -18.8125 23.8125 C-21.62531298 19.00821543 -21.43351003 14.23292087 -20.8125 8.8125 C-19.5636041 5.06581229 -17.59569179 2.50618416 -14.625 -0.125 C-9.66670618 -1.99813322 -4.89727381 -2.06773783 0 0 Z " fill="#688568" transform="translate(33.8125,15.1875)"/>
<path d="M0 0 C1.33998047 0.06960937 1.33998047 0.06960937 2.70703125 0.140625 C3.60808594 0.17671875 4.50914063 0.2128125 5.4375 0.25 C6.12457031 0.29640625 6.81164062 0.3428125 7.51953125 0.390625 C9.01679512 4.33079309 9.7784883 6.5490146 8.51953125 10.640625 C6.15999717 13.88498437 4.10933389 14.7056156 0.51953125 16.390625 C-3.65805502 20.33612315 -5.09253732 24.7656193 -5.48046875 30.390625 C-5.07591527 33.84859406 -4.33959198 37.00186114 -3.48046875 40.390625 C-8.10046875 40.390625 -12.72046875 40.390625 -17.48046875 40.390625 C-16.68469028 35.61595421 -15.7143948 31.8701552 -14.08203125 27.3828125 C-13.84640472 26.73490753 -13.6107782 26.08700256 -13.36801147 25.41946411 C-12.8713602 24.0587844 -12.37201885 22.69908384 -11.87011719 21.34033203 C-11.10627119 19.26780224 -10.35542353 17.19087194 -9.60546875 15.11328125 C-9.1192675 13.78617307 -8.63231379 12.45934028 -8.14453125 11.1328125 C-7.7057666 9.9351123 -7.26700195 8.73741211 -6.81494141 7.50341797 C-3.85869291 0.60766817 -3.85869291 0.60766817 0 0 Z " fill="#475A47" transform="translate(17.48046875,-0.390625)"/>
</svg>
