<svg width="25" height="25" viewBox="0 0 25 25" fill="none" xmlns="http://www.w3.org/2000/svg">
<path d="M12.287 15.3585C13.9835 15.3585 15.3587 13.9832 15.3587 12.2868C15.3587 10.5903 13.9835 9.21509 12.287 9.21509C10.5906 9.21509 9.21533 10.5903 9.21533 12.2868C9.21533 13.9832 10.5906 15.3585 12.287 15.3585Z" stroke="black" stroke-width="1.22868"/>
<path d="M3.74852 10.8942C4.23282 11.1973 4.54409 11.7154 4.54409 12.2867C4.54409 12.8581 4.23282 13.3762 3.74852 13.6792C3.41984 13.8871 3.20687 14.0519 3.05636 14.2485C2.89263 14.4619 2.77255 14.7055 2.70298 14.9654C2.63341 15.2252 2.61571 15.4962 2.6509 15.7629C2.70414 16.1663 2.94271 16.5799 3.41882 17.4062C3.89698 18.2325 4.13555 18.6451 4.45808 18.8939C4.6715 19.0577 4.91508 19.1778 5.17492 19.2473C5.43475 19.3169 5.70575 19.3346 5.97243 19.2994C6.21816 19.2666 6.46697 19.1663 6.811 18.9841C7.0573 18.8496 7.33368 18.7798 7.61428 18.7812C7.89489 18.7827 8.17054 18.8553 8.41545 18.9922C8.90999 19.2789 9.20385 19.8062 9.22433 20.3776C9.23867 20.7667 9.27553 21.0329 9.37075 21.2612C9.47366 21.5098 9.62457 21.7357 9.81484 21.926C10.0051 22.1163 10.231 22.2672 10.4796 22.3701C10.8554 22.5257 11.3325 22.5257 12.2868 22.5257C13.2411 22.5257 13.7182 22.5257 14.094 22.3701C14.3426 22.2672 14.5685 22.1163 14.7588 21.926C14.9491 21.7357 15.1 21.5098 15.2029 21.2612C15.2971 21.0329 15.335 20.7667 15.3493 20.3776C15.3698 19.8062 15.6636 19.2779 16.1582 18.9922C16.4031 18.8553 16.6787 18.7827 16.9593 18.7812C17.24 18.7798 17.5163 18.8496 17.7626 18.9841C18.1067 19.1663 18.3565 19.2666 18.6022 19.2994C19.1405 19.3702 19.6848 19.2244 20.1155 18.8939C20.4381 18.6462 20.6766 18.2325 21.1538 17.4062C21.3668 17.0376 21.5316 16.752 21.6545 16.5124M20.8251 13.6803C20.5856 13.5343 20.387 13.3301 20.2478 13.0865C20.1087 12.843 20.0336 12.5682 20.0295 12.2877C20.0295 11.7154 20.3408 11.1973 20.8251 10.8932C21.1538 10.6864 21.3657 10.5215 21.5173 10.3249C21.681 10.1115 21.8011 9.86793 21.8706 9.6081C21.9402 9.34826 21.9579 9.07726 21.9227 8.81058C21.8695 8.40717 21.6309 7.99351 21.1548 7.16723C20.6766 6.34094 20.4381 5.92831 20.1155 5.6795C19.9021 5.51577 19.6585 5.39569 19.3987 5.32612C19.1389 5.25655 18.8679 5.23885 18.6012 5.27404C18.3555 5.3068 18.1067 5.40714 17.7616 5.5894C17.5154 5.72368 17.2392 5.79335 16.9588 5.79192C16.6784 5.79049 16.403 5.71799 16.1582 5.58121C15.9172 5.43754 15.7166 5.23511 15.5751 4.99283C15.4337 4.75055 15.356 4.47635 15.3493 4.19587C15.335 3.80679 15.2981 3.54057 15.2029 3.31225C15.1 3.06362 14.9491 2.83772 14.7588 2.64745C14.5685 2.45718 14.3426 2.30628 14.094 2.20336C13.7182 2.04773 13.2411 2.04773 12.2868 2.04773C11.3325 2.04773 10.8554 2.04773 10.4796 2.20336C10.231 2.30628 10.0051 2.45718 9.81484 2.64745C9.62457 2.83772 9.47366 3.06362 9.37075 3.31225C9.27655 3.54057 9.23867 3.80679 9.22433 4.19587C9.21766 4.47635 9.13996 4.75055 8.9985 4.99283C8.85704 5.23511 8.65643 5.43754 8.41545 5.58121C8.17054 5.71817 7.89489 5.79077 7.61428 5.7922C7.33368 5.79364 7.0573 5.72386 6.811 5.5894C6.46697 5.40714 6.21714 5.3068 5.9714 5.27404C5.43316 5.20325 4.88883 5.3491 4.45808 5.6795C4.13657 5.92831 3.89698 6.34094 3.41984 7.16723C3.20687 7.53583 3.04203 7.8215 2.91916 8.06109" stroke="black" stroke-width="1.22868" stroke-linecap="round"/>
</svg>
