<svg width="25" height="25" viewBox="0 0 25 25" fill="none" xmlns="http://www.w3.org/2000/svg">
<path d="M21.502 16.3823C21.502 19.2789 21.502 20.7267 20.602 21.6267C19.703 22.5257 18.2542 22.5257 15.3586 22.5257H9.21517C6.31959 22.5257 4.87077 22.5257 3.97179 21.6267C3.07178 20.7257 3.07178 19.2789 3.07178 16.3823V13.3106M16.3825 4.09753C18.6095 4.10982 19.8156 4.20914 20.602 4.99549C21.502 5.8955 21.502 7.3433 21.502 10.2389V12.2867M8.19128 4.09753C5.96429 4.10982 4.75814 4.20914 3.97179 4.99549C3.18543 5.78185 3.08611 6.988 3.07383 9.21498M9.21517 17.9181H15.3586" stroke="black" stroke-width="1.22868" stroke-linecap="round"/>
<path d="M8.19092 3.58358C8.19092 3.17625 8.35273 2.7856 8.64076 2.49757C8.92879 2.20954 9.31943 2.04773 9.72677 2.04773H14.8463C15.2536 2.04773 15.6442 2.20954 15.9323 2.49757C16.2203 2.7856 16.3821 3.17625 16.3821 3.58358V4.60748C16.3821 5.01481 16.2203 5.40546 15.9323 5.69349C15.6442 5.98152 15.2536 6.14333 14.8463 6.14333H9.72677C9.31943 6.14333 8.92879 5.98152 8.64076 5.69349C8.35273 5.40546 8.19092 5.01481 8.19092 4.60748V3.58358Z" stroke="black" stroke-width="1.22868"/>
<path d="M8.19089 14.3345H9.21479M16.3821 14.3345H12.2865M17.406 10.7509H15.3582M12.2865 10.7509H7.16699" stroke="black" stroke-width="1.22868" stroke-linecap="round"/>
</svg>
